<svg xmlns="http://www.w3.org/2000/svg" width="105.815" height="35.959" viewBox="0 0 105.815 35.959">
  <g id="Group_28475" data-name="Group 28475" transform="translate(1.639 1.637)">
    <path id="Path_47932" data-name="Path 47932" d="M0,.318A37.635,37.635,0,0,1,35.12,14.824c1.587,2.382,3.487,5.237.768,10.029-1.929,3.4-9.843,3.95-13.643.78a8.177,8.177,0,0,1-2.835-6.692c.483-8.594,8.584-12.824,16.808-12.8,15.609-.339,30.331,7.368,45.888,8.688,6.17.687,13.932-.505,16.793-6.717" transform="translate(2.585 5.567) rotate(-3)" fill="none" stroke="#ddd78d" stroke-linecap="round" stroke-miterlimit="10" stroke-width="2"/>
    <path id="Path_47933" data-name="Path 47933" d="M0,10.907,5.453,5.454,0,0" transform="matrix(-0.985, 0.174, -0.174, -0.985, 7.264, 10.741)" fill="none" stroke="#ddd78d" stroke-linecap="round" stroke-miterlimit="10" stroke-width="2"/>
  </g>
</svg>
