<svg xmlns="http://www.w3.org/2000/svg" width="28" height="28" viewBox="0 0 28 28">
  <path id="Path_72185" data-name="Path 72185" d="M12.852,0h2.3c.557.081,1.121.127,1.67.257a13.878,13.878,0,0,1,10.7,10,14.945,14.945,0,0,1,.483,2.6v2.3a17.966,17.966,0,0,1-.316,1.937,13.883,13.883,0,0,1-9.963,10.441A15.313,15.313,0,0,1,15.148,28h-2.3c-.557-.081-1.121-.126-1.67-.257A13.88,13.88,0,0,1,.445,17.616,15.128,15.128,0,0,1,0,15.148v-2.3c.079-.558.126-1.121.257-1.671A13.879,13.879,0,0,1,10.384.444,15.222,15.222,0,0,1,12.852,0M6.673,10.434a3.564,3.564,0,0,0,.248,1.3,14.04,14.04,0,0,0,2.742,4.594,15.063,15.063,0,0,0,7.079,4.783,3.685,3.685,0,0,0,2.809-.255,6.288,6.288,0,0,0,1.521-1.276.6.6,0,0,0,0-.992q-1.2-1.213-2.414-2.418c-.366-.364-.662-.353-1.03.023-.421.429-.84.86-1.266,1.285a1.308,1.308,0,0,1-1.867.149,18.288,18.288,0,0,1-4.045-3.961,1.314,1.314,0,0,1,.128-1.928c.449-.453.905-.9,1.35-1.355a.58.58,0,0,0,.038-.914Q10.7,8.176,9.412,6.913a.567.567,0,0,0-.855.008c-.317.3-.627.611-.921.933a3.588,3.588,0,0,0-.962,2.579" fill="#052f2b"/>
</svg>
