<svg xmlns="http://www.w3.org/2000/svg" width="28" height="28" viewBox="0 0 28 28">
  <path id="Exclusion_1" data-name="Exclusion 1" d="M14,28A14,14,0,0,1,4.1,4.1,14,14,0,1,1,23.9,23.9,13.908,13.908,0,0,1,14,28ZM13.821,6.125a5.144,5.144,0,0,0-5.071,5.2,6.428,6.428,0,0,0,.621,2.217c.326.779.772,1.7,1.4,2.9.6,1.132,1.241,2.285,1.759,3.211.408.729.76,1.358.974,1.773a.352.352,0,0,0,.628,0c.214-.415.566-1.044.974-1.772.519-.927,1.164-2.08,1.76-3.212.606-1.15,1.063-2.1,1.4-2.9a6.477,6.477,0,0,0,.628-2.217A5.145,5.145,0,0,0,13.821,6.125Zm0,6.5a1.821,1.821,0,1,1,1.815-1.821A1.823,1.823,0,0,1,13.821,12.627Z" fill="#052f2b"/>
</svg>
