<svg xmlns="http://www.w3.org/2000/svg" xmlns:xlink="http://www.w3.org/1999/xlink" width="328.976" height="430.066" viewBox="0 0 328.976 430.066">
  <defs>
    <filter id="Path_82652" x="17.216" y="93.852" width="294.544" height="336.215" filterUnits="userSpaceOnUse">
      <feOffset dy="24" input="SourceAlpha"/>
      <feGaussianBlur stdDeviation="14" result="blur"/>
      <feFlood flood-opacity="0.031"/>
      <feComposite operator="in" in2="blur"/>
      <feComposite in="SourceGraphic"/>
    </filter>
  </defs>
  <g id="Group_28686" data-name="Group 28686" transform="translate(0 -9)">
    <path id="Path_82651" data-name="Path 82651" d="M164.488,345.976A164.488,164.488,0,1,0,0,181.488,164.489,164.489,0,0,0,164.488,345.976Z" transform="translate(0 9.545)" fill="#fdf8f2"/>
    <g id="Group_28684" data-name="Group 28684" transform="translate(59.216 120.852)">
      <g transform="matrix(1, 0, 0, 1, -59.22, -111.85)" filter="url(#Path_82652)">
        <path id="Path_82652-2" data-name="Path 82652" d="M226.579,60H37.966A10.966,10.966,0,0,0,27,70.966V301.249a10.966,10.966,0,0,0,10.966,10.966H226.579a10.967,10.967,0,0,0,10.966-10.966V70.966A10.966,10.966,0,0,0,226.579,60Z" transform="translate(32.22 51.85)" fill="#fff"/>
      </g>
    </g>
    <path id="Path_82653" data-name="Path 82653" d="M99.6,75H42.58a6.58,6.58,0,0,0,0,13.159H99.6A6.58,6.58,0,0,0,99.6,75Z" transform="translate(42.954 78.749)" fill="#fdf8f2"/>
    <path id="Path_82654" data-name="Path 82654" d="M139.079,88H42.58a6.58,6.58,0,0,0,0,13.159h96.5a6.58,6.58,0,1,0,0-13.159Z" transform="translate(42.954 94.261)" fill="rgba(26,46,57,0.11)"/>
    <path id="Path_82655" data-name="Path 82655" d="M99.6,102H42.58a6.58,6.58,0,0,0,0,13.159H99.6A6.58,6.58,0,0,0,99.6,102Z" transform="translate(42.954 110.965)" fill="#fdf8f2"/>
    <path id="Path_82656" data-name="Path 82656" d="M139.079,115H42.58a6.58,6.58,0,1,0,0,13.159h96.5a6.58,6.58,0,1,0,0-13.159Z" transform="translate(42.954 126.476)" fill="rgba(26,46,57,0.11)"/>
    <path id="Path_82657" data-name="Path 82657" d="M99.6,129H42.58a6.58,6.58,0,1,0,0,13.159H99.6A6.58,6.58,0,1,0,99.6,129Z" transform="translate(42.954 143.181)" fill="#fdf8f2"/>
    <path id="Path_82658" data-name="Path 82658" d="M139.079,142H42.58a6.58,6.58,0,1,0,0,13.159h96.5a6.58,6.58,0,1,0,0-13.159Z" transform="translate(42.954 158.692)" fill="rgba(26,46,57,0.11)"/>
    <g id="Group_28685" data-name="Group 28685" transform="translate(59.216 9)">
      <path id="Path_82659" data-name="Path 82659" d="M226.579,9H37.966A10.966,10.966,0,0,0,27,19.966v65.8A10.966,10.966,0,0,0,37.966,96.727H226.579a10.966,10.966,0,0,0,10.966-10.966v-65.8A10.966,10.966,0,0,0,226.579,9Z" transform="translate(-27 -9)" fill="#052f2b"/>
    </g>
    <path id="Path_82660" data-name="Path 82660" d="M99.6,20H42.58a6.58,6.58,0,1,0,0,13.159H99.6A6.58,6.58,0,0,0,99.6,20Z" transform="translate(42.954 13.125)" fill="#ddd78d"/>
    <path id="Path_82661" data-name="Path 82661" d="M139.079,33H42.58a6.58,6.58,0,0,0,0,13.159h96.5a6.58,6.58,0,1,0,0-13.159Z" transform="translate(42.954 28.636)" fill="#fff"/>
  </g>
</svg>
