<svg id="Group_28649" data-name="Group 28649" xmlns="http://www.w3.org/2000/svg" xmlns:xlink="http://www.w3.org/1999/xlink" width="21.055" height="21.062" viewBox="0 0 21.055 21.062">
  <defs>
    <clipPath id="clip-path">
      <rect id="Rectangle_19688" data-name="Rectangle 19688" width="21.055" height="21.062" fill="#ddd78d"/>
    </clipPath>
  </defs>
  <g id="Group_28648" data-name="Group 28648" clip-path="url(#clip-path)">
    <path id="Path_82636" data-name="Path 82636" d="M15.59,0H16a.83.83,0,0,1,.577.854c0,.356,0,.712,0,1.068,0,.283.017.3.307.3.561,0,1.123,0,1.684,0a2.729,2.729,0,0,1,1.181.217,2.34,2.34,0,0,1,1.3,1.67V19.19c-.014.046-.031.091-.042.137a2.334,2.334,0,0,1-2.3,1.736c-5.449-.017-10.9-.008-16.348-.009a2.551,2.551,0,0,1-.45-.024A2.253,2.253,0,0,1,0,18.733Q0,11.669,0,4.6c0-.089,0-.178,0-.267A2.283,2.283,0,0,1,2.07,2.243c.7-.038,1.41-.012,2.115-.022.29,0,.306-.017.307-.3,0-.356,0-.712,0-1.068A.83.83,0,0,1,5.071,0h.411a.83.83,0,0,1,.577.854c0,.363,0,.726,0,1.088,0,.256.023.278.286.278.6,0,1.191,0,1.787,0H14.7c.286,0,.3-.018.306-.279,0-.363,0-.726,0-1.088A.83.83,0,0,1,15.59,0M10.557,9.049H1.827c-.268,0-.279.011-.279.278q0,4.683,0,9.367a.723.723,0,0,0,.79.813q8.2,0,16.392,0a1.017,1.017,0,0,0,.244-.023.726.726,0,0,0,.548-.788q0-4.652,0-9.3c0-.34,0-.341-.339-.341H10.557m-.023-1.568H19.2c.315,0,.32-.006.321-.323,0-.863,0-1.726,0-2.588a.712.712,0,0,0-.78-.778c-.609,0-1.219,0-1.828,0-.333,0-.328,0-.335.329A9.5,9.5,0,0,1,16.55,5.39a.736.736,0,0,1-.622.625.78.78,0,0,1-.912-.829c-.014-.362,0-.726,0-1.089,0-.3-.006-.308-.313-.308H6.378c-.315,0-.312,0-.318.325a9.626,9.626,0,0,1-.029,1.271.734.734,0,0,1-.638.631.782.782,0,0,1-.9-.847c-.011-.376-.009-.753,0-1.13,0-.184-.06-.256-.25-.254-.63.008-1.26,0-1.89,0a.722.722,0,0,0-.805.816c0,.842,0,1.684,0,2.527,0,.347,0,.348.358.348h8.628" transform="translate(-0.001)" fill="#ddd78d"/>
    <path id="Path_82637" data-name="Path 82637" d="M92.575,327.976c.253,0,.506-.005.759,0a.771.771,0,0,1,.016,1.541c-.512.014-1.025.013-1.538,0a.771.771,0,1,1,.025-1.542c.246-.005.492,0,.738,0" transform="translate(-87.302 -314.471)" fill="#ddd78d"/>
    <path id="Path_82638" data-name="Path 82638" d="M220.35,327.976c.246,0,.492-.006.738,0a.77.77,0,0,1,.03,1.539q-.789.024-1.579,0a.77.77,0,0,1,.031-1.539c.26-.007.519,0,.779,0" transform="translate(-209.794 -314.471)" fill="#ddd78d"/>
    <path id="Path_82639" data-name="Path 82639" d="M348.086,327.977c.246,0,.492,0,.738,0a.771.771,0,1,1,.011,1.542q-.758.017-1.517,0a.771.771,0,1,1,.009-1.542c.253-.006.506,0,.759,0" transform="translate(-332.281 -314.472)" fill="#ddd78d"/>
    <path id="Path_82640" data-name="Path 82640" d="M92.58,402.331c-.253,0-.506.005-.759,0a.771.771,0,0,1-.014-1.541q.768-.02,1.538,0a.771.771,0,1,1-.027,1.542c-.246.005-.492,0-.738,0" transform="translate(-87.302 -384.278)" fill="#ddd78d"/>
    <path id="Path_82641" data-name="Path 82641" d="M220.318,402.341c-.246,0-.492,0-.738,0a.771.771,0,1,1-.014-1.542q.758-.017,1.517,0a.771.771,0,1,1-.007,1.542c-.253.006-.506,0-.759,0" transform="translate(-209.791 -384.289)" fill="#ddd78d"/>
    <path id="Path_82642" data-name="Path 82642" d="M348.073,402.322c-.253,0-.506.006-.759,0a.77.77,0,0,1-.02-1.539c.519-.015,1.039-.015,1.558,0a.771.771,0,0,1-.021,1.541c-.253.006-.506,0-.759,0" transform="translate(-332.283 -384.269)" fill="#ddd78d"/>
    <path id="Path_82643" data-name="Path 82643" d="M92.578,255.1c.253,0,.506,0,.758,0a.766.766,0,0,1,.761.692.781.781,0,0,1-.6.823,1.49,1.49,0,0,1-.387.031c-.43,0-.861.01-1.291-.005a.784.784,0,0,1-.776-.793.773.773,0,0,1,.812-.748c.239,0,.478,0,.717,0" transform="translate(-87.3 -244.593)" fill="#ddd78d"/>
    <path id="Path_82644" data-name="Path 82644" d="M220.332,255.1c.253,0,.506,0,.758,0a.766.766,0,0,1,.755.7.782.782,0,0,1-.584.812,1.2,1.2,0,0,1-.325.035c-.451,0-.9.009-1.353,0a.786.786,0,0,1-.789-.8.774.774,0,0,1,.819-.741c.239,0,.478,0,.717,0Z" transform="translate(-209.787 -244.592)" fill="#ddd78d"/>
    <path id="Path_82645" data-name="Path 82645" d="M348.082,255.1c.253,0,.506,0,.758,0a.764.764,0,0,1,.752.679.78.78,0,0,1-.562.827,1.138,1.138,0,0,1-.324.04c-.458,0-.916.009-1.373,0a.786.786,0,0,1-.789-.8.774.774,0,0,1,.82-.741c.239,0,.478,0,.717,0Z" transform="translate(-332.276 -244.592)" fill="#ddd78d"/>
  </g>
</svg>
