<svg xmlns="http://www.w3.org/2000/svg" width="36" height="36" viewBox="0 0 36 36">
  <path id="Path_72185" data-name="Path 72185" d="M16.523,0h2.953c.717.1,1.441.163,2.148.33A17.843,17.843,0,0,1,35.379,13.182,19.215,19.215,0,0,1,36,16.523v2.953a23.1,23.1,0,0,1-.406,2.491,17.85,17.85,0,0,1-12.81,13.424A19.688,19.688,0,0,1,19.477,36H16.523c-.717-.1-1.441-.162-2.148-.33A17.845,17.845,0,0,1,.572,22.649,19.45,19.45,0,0,1,0,19.477V16.523c.1-.717.162-1.442.33-2.148A17.845,17.845,0,0,1,13.351.571,19.571,19.571,0,0,1,16.523,0M8.58,13.415A4.583,4.583,0,0,0,8.9,15.08a18.051,18.051,0,0,0,3.526,5.907,19.367,19.367,0,0,0,9.1,6.149,4.737,4.737,0,0,0,3.612-.328,8.085,8.085,0,0,0,1.956-1.64.775.775,0,0,0,0-1.276q-1.546-1.56-3.1-3.108c-.471-.468-.851-.453-1.325.03-.542.552-1.08,1.106-1.628,1.652a1.682,1.682,0,0,1-2.4.191,23.514,23.514,0,0,1-5.2-5.093,1.689,1.689,0,0,1,.164-2.479c.578-.582,1.164-1.155,1.736-1.742a.746.746,0,0,0,.048-1.176q-1.624-1.656-3.28-3.279A.729.729,0,0,0,11,8.9c-.407.387-.806.785-1.185,1.2A4.613,4.613,0,0,0,8.58,13.415" fill="#fff"/>
</svg>
