<svg xmlns="http://www.w3.org/2000/svg" width="30" height="30" viewBox="0 0 30 30">
  <g id="Group_28611" data-name="Group 28611" transform="translate(-422 -7673)">
    <g id="Path_72186" data-name="Path 72186" transform="translate(422 7673)" fill="none">
      <path d="M15,0A15,15,0,1,1,0,15,15,15,0,0,1,15,0Z" stroke="none"/>
      <path d="M 15.00000286102295 1.000001907348633 C 11.26047325134277 1.000001907348633 7.744762420654297 2.456253051757812 5.100513458251953 5.100513458251953 C 2.456253051757812 7.744762420654297 1.000001907348633 11.26047325134277 1.000001907348633 15.00000286102295 C 1.000001907348633 18.73953247070312 2.456253051757812 22.2552433013916 5.100513458251953 24.89949226379395 C 7.744762420654297 27.54375267028809 11.26047325134277 29.00000381469727 15.00000286102295 29.00000381469727 C 18.73953247070312 29.00000381469727 22.2552433013916 27.54375267028809 24.89949226379395 24.89949226379395 C 27.54375267028809 22.2552433013916 29.00000381469727 18.73953247070312 29.00000381469727 15.00000286102295 C 29.00000381469727 11.26047325134277 27.54375267028809 7.744762420654297 24.89949226379395 5.100513458251953 C 22.2552433013916 2.456253051757812 18.73953247070312 1.000001907348633 15.00000286102295 1.000001907348633 M 15.00000286102295 1.9073486328125e-06 C 23.28427314758301 1.9073486328125e-06 30.00000381469727 6.715732574462891 30.00000381469727 15.00000286102295 C 30.00000381469727 23.28427314758301 23.28427314758301 30.00000381469727 15.00000286102295 30.00000381469727 C 6.715732574462891 30.00000381469727 1.9073486328125e-06 23.28427314758301 1.9073486328125e-06 15.00000286102295 C 1.9073486328125e-06 6.715732574462891 6.715732574462891 1.9073486328125e-06 15.00000286102295 1.9073486328125e-06 Z" stroke="none" fill="#fff"/>
    </g>
    <g id="Group_28607" data-name="Group 28607" transform="translate(431.608 7682.619)">
      <path id="Path_82631" data-name="Path 82631" d="M3.268.032C3.861.006,4.051,0,5.561,0s1.7.006,2.292.032A4.28,4.28,0,0,1,9.2.277a2.754,2.754,0,0,1,.985.61,2.573,2.573,0,0,1,.641.936,3.72,3.72,0,0,1,.259,1.283c.027.565.033.744.033,2.18s-.007,1.615-.033,2.179a3.709,3.709,0,0,1-.259,1.283,2.584,2.584,0,0,1-.641.936,2.745,2.745,0,0,1-.985.609,4.279,4.279,0,0,1-1.35.246c-.594.026-.783.032-2.293.032s-1.7-.006-2.293-.032a4.266,4.266,0,0,1-1.35-.246,2.746,2.746,0,0,1-.985-.609,2.582,2.582,0,0,1-.642-.936A3.733,3.733,0,0,1,.033,7.465C.006,6.9,0,6.721,0,5.285S.007,3.67.033,3.107A3.722,3.722,0,0,1,.292,1.823,2.584,2.584,0,0,1,.934.887a2.744,2.744,0,0,1,.984-.61A4.292,4.292,0,0,1,3.268.032Zm4.54.951C7.222.958,7.046.952,5.561.952S3.9.958,3.314.983a3.214,3.214,0,0,0-1.033.182,1.738,1.738,0,0,0-.64.395,1.634,1.634,0,0,0-.416.608,2.8,2.8,0,0,0-.192.982C1.008,3.707,1,3.874,1,5.285s.006,1.578.032,2.136a2.8,2.8,0,0,0,.192.982,1.635,1.635,0,0,0,.416.608,1.738,1.738,0,0,0,.64.395,3.215,3.215,0,0,0,1.033.182c.586.025.762.031,2.247.031s1.661-.005,2.247-.031a3.215,3.215,0,0,0,1.033-.182,1.739,1.739,0,0,0,.64-.395A1.635,1.635,0,0,0,9.9,8.4a2.8,2.8,0,0,0,.192-.982c.027-.557.032-.725.032-2.136s-.006-1.578-.032-2.136A2.8,2.8,0,0,0,9.9,2.168a1.636,1.636,0,0,0-.416-.608,1.737,1.737,0,0,0-.64-.395A3.214,3.214,0,0,0,7.808.983ZM4.851,6.915a1.945,1.945,0,0,0,1.25.06,1.85,1.85,0,0,0,1.005-.708,1.7,1.7,0,0,0,.3-1.154,1.728,1.728,0,0,0-.536-1.074,1.871,1.871,0,0,0-.687-.413,1.946,1.946,0,0,0-.807-.094,1.923,1.923,0,0,0-.772.242,1.819,1.819,0,0,0-.589.533,1.712,1.712,0,0,0-.293.721,1.679,1.679,0,0,0,.06.77,1.743,1.743,0,0,0,.4.672A1.858,1.858,0,0,0,4.851,6.915ZM3.54,3.364a2.873,2.873,0,0,1,.927-.589,3,3,0,0,1,2.188,0,2.873,2.873,0,0,1,.927.589,2.712,2.712,0,0,1,.62.881,2.593,2.593,0,0,1,0,2.079,2.712,2.712,0,0,1-.62.881,2.965,2.965,0,0,1-4.042,0,2.622,2.622,0,0,1,0-3.842Zm5.514-.391a.644.644,0,0,0,.155-.209.613.613,0,0,0,.008-.5.641.641,0,0,0-.148-.213.68.68,0,0,0-.224-.141.708.708,0,0,0-.526.007.677.677,0,0,0-.219.147.62.62,0,0,0,.014.9.7.7,0,0,0,.942.013Z" transform="translate(0 0)" fill="#fff" fill-rule="evenodd"/>
    </g>
  </g>
</svg>
