<svg xmlns="http://www.w3.org/2000/svg" width="30" height="30" viewBox="0 0 30 30">
  <g id="Group_28609" data-name="Group 28609" transform="translate(-340.615 -7673)">
    <g id="Path_72187" data-name="Path 72187" transform="translate(340.615 7673)" fill="none">
      <path d="M15,0A15,15,0,1,1,0,15,15,15,0,0,1,15,0Z" stroke="none"/>
      <path d="M 15.00000286102295 1.000001907348633 C 11.26047325134277 1.000001907348633 7.744762420654297 2.456253051757812 5.100513458251953 5.100513458251953 C 2.456253051757812 7.744762420654297 1.000001907348633 11.26047325134277 1.000001907348633 15.00000286102295 C 1.000001907348633 18.73953247070312 2.456253051757812 22.2552433013916 5.100513458251953 24.89949226379395 C 7.744762420654297 27.54375267028809 11.26047325134277 29.00000381469727 15.00000286102295 29.00000381469727 C 18.73953247070312 29.00000381469727 22.2552433013916 27.54375267028809 24.89949226379395 24.89949226379395 C 27.54375267028809 22.2552433013916 29.00000381469727 18.73953247070312 29.00000381469727 15.00000286102295 C 29.00000381469727 11.26047325134277 27.54375267028809 7.744762420654297 24.89949226379395 5.100513458251953 C 22.2552433013916 2.456253051757812 18.73953247070312 1.000001907348633 15.00000286102295 1.000001907348633 M 15.00000286102295 1.9073486328125e-06 C 23.28427314758301 1.9073486328125e-06 30.00000381469727 6.715732574462891 30.00000381469727 15.00000286102295 C 30.00000381469727 23.28427314758301 23.28427314758301 30.00000381469727 15.00000286102295 30.00000381469727 C 6.715732574462891 30.00000381469727 1.9073486328125e-06 23.28427314758301 1.9073486328125e-06 15.00000286102295 C 1.9073486328125e-06 6.715732574462891 6.715732574462891 1.9073486328125e-06 15.00000286102295 1.9073486328125e-06 Z" stroke="none" fill="#fafafa"/>
    </g>
    <g id="_2111532" data-name="2111532" transform="translate(350.086 7682.471)">
      <path id="Path_13086" data-name="Path 13086" d="M15.322,14.813h0V10.933c0-1.9-.409-3.359-2.627-3.359a2.3,2.3,0,0,0-2.074,1.14h-.031V7.751h-2.1v7.061h2.19v-3.5c0-.921.175-1.811,1.315-1.811,1.123,0,1.14,1.051,1.14,1.87v3.438Z" transform="translate(-4.748 -4.236)" fill="#fff"/>
      <path id="Path_13087" data-name="Path 13087" d="M.4,7.977H2.589v7.061H.4Z" transform="translate(-0.221 -4.462)" fill="#fff"/>
      <path id="Path_13088" data-name="Path 13088" d="M1.27,0A1.276,1.276,0,1,0,2.54,1.27,1.27,1.27,0,0,0,1.27,0Z" fill="#fff"/>
    </g>
  </g>
</svg>
