<svg xmlns="http://www.w3.org/2000/svg" width="32" height="32" viewBox="0 0 32 32">
  <path id="Exclusion_1" data-name="Exclusion 1" d="M16,32A16,16,0,0,1,4.686,4.686,16,16,0,1,1,27.314,27.314,15.9,15.9,0,0,1,16,32ZM15.8,7A5.879,5.879,0,0,0,10,12.946a7.346,7.346,0,0,0,.71,2.534c.373.89.882,1.943,1.6,3.313.681,1.294,1.418,2.612,2.011,3.67.466.833.869,1.552,1.113,2.026a.4.4,0,0,0,.717,0c.245-.474.647-1.193,1.113-2.025.593-1.059,1.33-2.377,2.011-3.671.692-1.314,1.214-2.4,1.6-3.313a7.4,7.4,0,0,0,.717-2.534A5.88,5.88,0,0,0,15.8,7Zm0,7.43A2.081,2.081,0,1,1,17.87,12.35,2.083,2.083,0,0,1,15.8,14.431Z" fill="#fff"/>
</svg>
