<svg xmlns="http://www.w3.org/2000/svg" width="32" height="32" viewBox="0 0 32 32">
  <path id="Path_82632" data-name="Path 82632" d="M86,0A16,16,0,1,0,97.312,4.686,16,16,0,0,0,86,0ZM78.209,11.574a2.426,2.426,0,0,1,2.333-1.494h10.88a2.458,2.458,0,0,1,2.342,1.44.435.435,0,0,1-.23.672l-7.216,3.76a.6.6,0,0,1-.6,0L78.411,12.16a.381.381,0,0,1-.2-.586Zm15.744,8.285a2.439,2.439,0,0,1-2.445,2.061H80.536a2.47,2.47,0,0,1-2.441-1.834,2.5,2.5,0,0,1-.09-.64V14.22c0-.451.282-.618.688-.41q3.408,1.773,6.81,3.552a.988.988,0,0,0,1.008,0q3.386-1.776,6.781-3.52h0a.771.771,0,0,1,.2-.083.381.381,0,0,1,.5.406v4.522a7.128,7.128,0,0,1-.045,1.171Z" transform="translate(-69.998)" fill="#fff"/>
</svg>
