<svg xmlns="http://www.w3.org/2000/svg" xmlns:xlink="http://www.w3.org/1999/xlink" width="82" height="82" viewBox="0 0 82 82"> <defs> <linearGradient id="linear-gradient" x1="0.883" y1="0.147" x2="0.033" y2="0.873" gradientUnits="objectBoundingBox"> <stop offset="0" stop-color="#052f2b"/> <stop offset="1" stop-color="#1a2e39"/> </linearGradient> </defs> <g id="Group_28499" data-name="Group 28499" transform="translate(-704 -4266)"> <rect id="Rectangle_15463" data-name="Rectangle 15463" width="82" height="82" rx="2" transform="translate(704 4266)" fill="url(#linear-gradient)"/> <path id="Path_47869" data-name="Path 47869" d="M95,77.92a1.412,1.412,0,0,1,1.732.124l.942,1.185a1.4,1.4,0,0,1-.454,1.782q-2.548,2.114-3.705,3.27a18.075,18.075,0,0,0-3.367,4.768c-.169.363.262.593.486.666q8.356,2.739,8.357,9.655a8.678,8.678,0,0,1-2.706,6.621A9.507,9.507,0,0,1,89.5,108.54a8.266,8.266,0,0,1-6.43-3.311,10.045,10.045,0,0,1-2.738-6.749Q80.336,87.845,95,77.92Zm-21.2,0a1.412,1.412,0,0,1,1.732.124l.942,1.185a1.4,1.4,0,0,1-.454,1.782q-2.548,2.114-3.705,3.27a18.081,18.081,0,0,0-3.367,4.768c-.169.363.262.593.486.666q8.356,2.739,8.357,9.655a8.678,8.678,0,0,1-2.706,6.621A9.508,9.508,0,0,1,68.3,108.54a8.266,8.266,0,0,1-6.43-3.311,10.045,10.045,0,0,1-2.738-6.749Q59.135,87.845,73.8,77.92Z" transform="translate(665.938 4213.89)" fill="#fff"/> </g> </svg> 