<svg xmlns="http://www.w3.org/2000/svg" width="127.221" height="14.181" viewBox="0 0 127.221 14.181"> <g id="Group_18621" data-name="Group 18621" transform="translate(0 0)"> <path id="Path_44306" data-name="Path 44306" d="M165.991,667.575l0,0-4.477-6.393H158.49l4.956,7.081-4.972,7.1H161.5l4.4-6.277a1.237,1.237,0,0,0,.094-1.51" transform="translate(-38.983 -661.18)" fill="#ddd78d" opacity="0.1"/> <path id="Path_44307" data-name="Path 44307" d="M193.348,667.575l0,0-4.477-6.393h-3.028l4.958,7.081-4.971,7.1h3.027l4.4-6.277a1.237,1.237,0,0,0,.094-1.51" transform="translate(-111.348 -661.18)" fill="#ddd78d" opacity="0.4"/> <path id="Path_44312" data-name="Path 44312" d="M220.709,667.575l0,0-4.477-6.393h-3.027l4.958,7.081-4.974,7.1h3.028l4.4-6.277a1.24,1.24,0,0,0,.093-1.51" transform="translate(-183.319 -661.18)" fill="#ddd78d" opacity="0.8"/> <path id="Path_44308" data-name="Path 44308" d="M175.111,667.575l0,0-4.477-6.393h-3.027l4.958,7.081-4.973,7.1h3.027l4.4-6.277a1.237,1.237,0,0,0,.093-1.51" transform="translate(-63.239 -661.18)" fill="#ddd78d" opacity="0.2"/> <path id="Path_44309" data-name="Path 44309" d="M202.468,667.575l0,0-4.478-6.393h-3.026l4.956,7.081-4.972,7.1h3.027l4.4-6.277a1.237,1.237,0,0,0,.094-1.51" transform="translate(-135.206 -661.18)" fill="#ddd78d" opacity="0.6"/> <path id="Path_44313" data-name="Path 44313" d="M229.826,667.575l0,0-4.479-6.393h-3.027l4.958,7.081-4.973,7.1h3.029l4.4-6.277a1.23,1.23,0,0,0,.093-1.51" transform="translate(-207.572 -661.18)" fill="#ddd78d" opacity="0.9"/> <path id="Path_44310" data-name="Path 44310" d="M184.227,667.575l0,0-4.479-6.393h-3.027l4.958,7.081-4.973,7.1h3.029l4.4-6.277a1.233,1.233,0,0,0,.093-1.51" transform="translate(-87.092 -661.18)" fill="#ddd78d" opacity="0.3"/> <path id="Path_44311" data-name="Path 44311" d="M211.588,667.575l0,0-4.477-6.393h-3.027l4.956,7.081-4.971,7.1H207.1l4.4-6.277a1.234,1.234,0,0,0,.094-1.51" transform="translate(-159.461 -661.18)" fill="#ddd78d" opacity="0.7"/> <path id="Path_44314" data-name="Path 44314" d="M238.947,667.575l0,0-4.479-6.393h-3.027l4.958,7.081-4.972,7.1h3.028l4.4-6.277a1.237,1.237,0,0,0,.094-1.51" transform="translate(-231.43 -661.18)" fill="#ddd78d"/> </g> </svg> 