<svg xmlns="http://www.w3.org/2000/svg" width="28" height="28" viewBox="0 0 28 28"> <path id="Path_82632" data-name="Path 82632" d="M84,0a14,14,0,1,0,9.9,4.1A14,14,0,0,0,84,0ZM77.183,10.127A2.123,2.123,0,0,1,79.224,8.82h9.52a2.15,2.15,0,0,1,2.049,1.26.381.381,0,0,1-.2.588l-6.314,3.29a.526.526,0,0,1-.524,0l-6.4-3.318a.333.333,0,0,1-.176-.512Zm13.776,7.249a2.134,2.134,0,0,1-2.139,1.8h-9.6a2.161,2.161,0,0,1-2.136-1.6,2.188,2.188,0,0,1-.078-.56V12.443c0-.395.246-.54.6-.358q2.982,1.551,5.958,3.108a.865.865,0,0,0,.882,0q2.962-1.554,5.933-3.08h0a.675.675,0,0,1,.179-.073A.333.333,0,0,1,91,12.4v3.956a6.238,6.238,0,0,1-.039,1.025Z" transform="translate(-69.998)" fill="#052f2b"/> </svg> 