<svg xmlns="http://www.w3.org/2000/svg" width="50" height="50" viewBox="0 0 50 50"> <g id="Group_23109" data-name="Group 23109" transform="translate(-935 -806)"> <g id="Path_72188" data-name="Path 72188" transform="translate(935 806)" fill="none"> <path d="M25,0A25,25,0,1,1,0,25,25,25,0,0,1,25,0Z" stroke="none"/> <path d="M 25 1 C 21.75958061218262 1 18.61661911010742 1.634418487548828 15.65842056274414 2.885631561279297 C 12.80064010620117 4.094371795654297 10.23387908935547 5.825000762939453 8.029441833496094 8.029441833496094 C 5.825000762939453 10.23387908935547 4.094371795654297 12.80064010620117 2.885631561279297 15.65842056274414 C 1.634418487548828 18.61661911010742 1 21.75958061218262 1 25 C 1 28.24041938781738 1.634418487548828 31.38338088989258 2.885631561279297 34.34157943725586 C 4.094371795654297 37.19935989379883 5.825000762939453 39.76612091064453 8.029441833496094 41.97055816650391 C 10.23387908935547 44.17499923706055 12.80064010620117 45.90563201904297 15.65842056274414 47.1143684387207 C 18.61661911010742 48.36558151245117 21.75958061218262 49 25 49 C 28.24041938781738 49 31.38338088989258 48.36558151245117 34.34157943725586 47.1143684387207 C 37.19935989379883 45.90563201904297 39.76612091064453 44.17499923706055 41.97055816650391 41.97055816650391 C 44.17499923706055 39.76612091064453 45.90563201904297 37.19935989379883 47.1143684387207 34.34157943725586 C 48.36558151245117 31.38338088989258 49 28.24041938781738 49 25 C 49 21.75958061218262 48.36558151245117 18.61661911010742 47.1143684387207 15.65842056274414 C 45.90563201904297 12.80064010620117 44.17499923706055 10.23387908935547 41.97055816650391 8.029441833496094 C 39.76612091064453 5.825000762939453 37.19935989379883 4.094371795654297 34.34157943725586 2.885631561279297 C 31.38338088989258 1.634418487548828 28.24041938781738 1 25 1 M 25 0 C 38.80712127685547 0 50 11.19287872314453 50 25 C 50 38.80712127685547 38.80712127685547 50 25 50 C 11.19287872314453 50 0 38.80712127685547 0 25 C 0 11.19287872314453 11.19287872314453 0 25 0 Z" stroke="none" fill="#fff"/> </g> <path id="_733579" data-name="733579" d="M18.751,49.8a8.015,8.015,0,0,1-2.215.607,3.823,3.823,0,0,0,1.691-2.125,7.682,7.682,0,0,1-2.438.931,3.844,3.844,0,0,0-6.65,2.629,3.958,3.958,0,0,0,.089.877A10.881,10.881,0,0,1,1.306,48.7a3.845,3.845,0,0,0,1.181,5.138A3.8,3.8,0,0,1,.75,53.365v.042a3.862,3.862,0,0,0,3.08,3.777,3.837,3.837,0,0,1-1.008.127,3.4,3.4,0,0,1-.728-.066,3.881,3.881,0,0,0,3.592,2.678A7.724,7.724,0,0,1,.92,61.563,7.2,7.2,0,0,1,0,61.51a10.822,10.822,0,0,0,5.9,1.725A10.866,10.866,0,0,0,16.839,52.3c0-.17-.006-.334-.014-.5A7.669,7.669,0,0,0,18.751,49.8Z" transform="translate(951 775)" fill="#fff"/> </g> </svg> 