<svg xmlns="http://www.w3.org/2000/svg" width="30" height="30" viewBox="0 0 30 30"> <g id="Group_28610" data-name="Group 28610" transform="translate(-381.231 -7673)"> <g id="Path_72186" data-name="Path 72186" transform="translate(381.231 7673)" fill="none"> <path d="M15,0A15,15,0,1,1,0,15,15,15,0,0,1,15,0Z" stroke="none"/> <path d="M 15.00000286102295 1.000001907348633 C 11.26047325134277 1.000001907348633 7.744762420654297 2.456253051757812 5.100513458251953 5.100513458251953 C 2.456253051757812 7.744762420654297 1.000001907348633 11.26047325134277 1.000001907348633 15.00000286102295 C 1.000001907348633 18.73953247070312 2.456253051757812 22.2552433013916 5.100513458251953 24.89949226379395 C 7.744762420654297 27.54375267028809 11.26047325134277 29.00000381469727 15.00000286102295 29.00000381469727 C 18.73953247070312 29.00000381469727 22.2552433013916 27.54375267028809 24.89949226379395 24.89949226379395 C 27.54375267028809 22.2552433013916 29.00000381469727 18.73953247070312 29.00000381469727 15.00000286102295 C 29.00000381469727 11.26047325134277 27.54375267028809 7.744762420654297 24.89949226379395 5.100513458251953 C 22.2552433013916 2.456253051757812 18.73953247070312 1.000001907348633 15.00000286102295 1.000001907348633 M 15.00000286102295 1.9073486328125e-06 C 23.28427314758301 1.9073486328125e-06 30.00000381469727 6.715732574462891 30.00000381469727 15.00000286102295 C 30.00000381469727 23.28427314758301 23.28427314758301 30.00000381469727 15.00000286102295 30.00000381469727 C 6.715732574462891 30.00000381469727 1.9073486328125e-06 23.28427314758301 1.9073486328125e-06 15.00000286102295 C 1.9073486328125e-06 6.715732574462891 6.715732574462891 1.9073486328125e-06 15.00000286102295 1.9073486328125e-06 Z" stroke="none" fill="#fff"/> </g> <g id="Group_23107" data-name="Group 23107" transform="translate(393.831 7683.2)"> <path id="Path_39" data-name="Path 39" d="M34.977,13.068v1.521l-.9,0c-.708,0-.844.336-.844.828v1.088h1.686l-.219,1.7H33.23v4.429H31.472V18.21H30v-1.7h1.472V15.252A2.052,2.052,0,0,1,33.663,13,11.914,11.914,0,0,1,34.977,13.068Z" transform="translate(-30 -13)" fill="#fff" fill-rule="evenodd"/> </g> </g> </svg> 