<svg xmlns="http://www.w3.org/2000/svg" width="30" height="30" viewBox="0 0 30 30"> <g id="Group_28608" data-name="Group 28608" transform="translate(-300 -7673)"> <g id="Path_72188" data-name="Path 72188" transform="translate(300 7673)" fill="none"> <path d="M15,0A15,15,0,1,1,0,15,15,15,0,0,1,15,0Z" stroke="none"/> <path d="M 15.00000286102295 1.000001907348633 C 11.26047325134277 1.000001907348633 7.744762420654297 2.456253051757812 5.100513458251953 5.100513458251953 C 2.456253051757812 7.744762420654297 1.000001907348633 11.26047325134277 1.000001907348633 15.00000286102295 C 1.000001907348633 18.73953247070312 2.456253051757812 22.2552433013916 5.100513458251953 24.89949226379395 C 7.744762420654297 27.54375267028809 11.26047325134277 29.00000381469727 15.00000286102295 29.00000381469727 C 18.73953247070312 29.00000381469727 22.2552433013916 27.54375267028809 24.89949226379395 24.89949226379395 C 27.54375267028809 22.2552433013916 29.00000381469727 18.73953247070312 29.00000381469727 15.00000286102295 C 29.00000381469727 11.26047325134277 27.54375267028809 7.744762420654297 24.89949226379395 5.100513458251953 C 22.2552433013916 2.456253051757812 18.73953247070312 1.000001907348633 15.00000286102295 1.000001907348633 M 15.00000286102295 1.9073486328125e-06 C 23.28427314758301 1.9073486328125e-06 30.00000381469727 6.715732574462891 30.00000381469727 15.00000286102295 C 30.00000381469727 23.28427314758301 23.28427314758301 30.00000381469727 15.00000286102295 30.00000381469727 C 6.715732574462891 30.00000381469727 1.9073486328125e-06 23.28427314758301 1.9073486328125e-06 15.00000286102295 C 1.9073486328125e-06 6.715732574462891 6.715732574462891 1.9073486328125e-06 15.00000286102295 1.9073486328125e-06 Z" stroke="none" fill="#fff"/> </g> <path id="_733579" data-name="733579" d="M11.539,49.11a4.932,4.932,0,0,1-1.363.374,2.352,2.352,0,0,0,1.041-1.308,4.728,4.728,0,0,1-1.5.573,2.365,2.365,0,0,0-4.092,1.618,2.436,2.436,0,0,0,.055.539A6.7,6.7,0,0,1,.8,48.431a2.366,2.366,0,0,0,.727,3.162A2.336,2.336,0,0,1,.462,51.3v.026a2.377,2.377,0,0,0,1.9,2.324,2.361,2.361,0,0,1-.62.078,2.091,2.091,0,0,1-.448-.04A2.388,2.388,0,0,0,3.5,55.338,4.753,4.753,0,0,1,.566,56.346,4.43,4.43,0,0,1,0,56.314a6.66,6.66,0,0,0,3.629,1.062,6.687,6.687,0,0,0,6.733-6.732c0-.1,0-.206-.009-.306A4.719,4.719,0,0,0,11.539,49.11Z" transform="translate(309.452 7635.085)" fill="#fff"/> </g> </svg> 